HIERARCHY
ROOT Hips
{
	OFFSET	0.00	0.00	0.00
	CHANNELS 6 Xposition Yposition Zposition Zrotation Xrotation Yrotation
	JOINT LeftUpLeg
	{
		OFFSET	 0.126116	-0.014019	-0.065224
		CHANNELS 3 Zrotation Xrotation Yrotation
		JOINT LeftLeg
		{
			OFFSET	 0.000000	 0.000000	 0.569914
			CHANNELS 3 Zrotation Xrotation Yrotation
			JOINT LeftFoot
			{
				OFFSET	 0.000000	 0.000000	 0.544423
				CHANNELS 3 Zrotation Xrotation Yrotation
				JOINT LeftToeBase
				{
					OFFSET	 0.000000	 0.000000	 0.207117
					CHANNELS 3 Zrotation Xrotation Yrotation
					End Site
					{
						OFFSET	 0.000000	 0.000000	 0.207117
					}
				}
			}
		}
	}
	JOINT RightUpLeg
	{
		OFFSET	-0.124023	-0.008373	-0.065224
		CHANNELS 3 Zrotation Xrotation Yrotation
		JOINT RightLeg
		{
			OFFSET	 0.000000	 0.000000	 0.570047
			CHANNELS 3 Zrotation Xrotation Yrotation
			JOINT RightFoot
			{
				OFFSET	 0.000000	 0.000000	 0.544354
				CHANNELS 3 Zrotation Xrotation Yrotation
				JOINT RightToeBase
				{
					OFFSET	 0.000000	 0.000000	 0.207540
					CHANNELS 3 Zrotation Xrotation Yrotation
					End Site
					{
						OFFSET	 0.000000	 0.000000	 0.207540
					}
				}
			}
		}
	}
	JOINT Spine
	{
		OFFSET	 0.000184	-0.007763	 0.117403
		CHANNELS 3 Zrotation Xrotation Yrotation
		JOINT Spine1
		{
			OFFSET	 0.000000	 0.000000	 0.137269
			CHANNELS 3 Zrotation Xrotation Yrotation
			JOINT Spine2
			{
				OFFSET	 0.000000	 0.000000	 0.156879
				CHANNELS 3 Zrotation Xrotation Yrotation
				JOINT LeftShoulder
				{
					OFFSET	 0.080501	-0.002496	 0.160144
					CHANNELS 3 Zrotation Xrotation Yrotation
					JOINT LeftArm
					{
						OFFSET	 0.000000	 0.000000	 0.164363
						CHANNELS 3 Zrotation Xrotation Yrotation
						JOINT LeftForeArm
						{
							OFFSET	 0.000000	 0.000000	 0.364576
							CHANNELS 3 Zrotation Xrotation Yrotation
							JOINT LeftHand
							{
								OFFSET	 0.000000	 0.000000	 0.360812
								CHANNELS 3 Zrotation Xrotation Yrotation
								JOINT LeftHandIndex1
								{
									OFFSET	 0.000000	 0.000000	 0.086006
									CHANNELS 3 Zrotation Xrotation Yrotation
									JOINT LeftHandIndex2
									{
										OFFSET	 0.000000	 0.000000	 0.047236
										CHANNELS 3 Zrotation Xrotation Yrotation
										JOINT LeftHandIndex3
										{
											OFFSET	-0.004284	-0.000551	 0.038166
											CHANNELS 3 Zrotation Xrotation Yrotation
											End Site
											{
												OFFSET	-0.004284	-0.000551	 0.038166
											}
										}
									}
								}
							}
						}
					}
				}
				JOINT Neck
				{
					OFFSET	 0.000000	 0.000000	 0.176489
					CHANNELS 3 Zrotation Xrotation Yrotation
					JOINT Head
					{
						OFFSET	 0.000000	-0.001747	 0.077940
						CHANNELS 3 Zrotation Xrotation Yrotation
						End Site
						{
							OFFSET	 0.000000	-0.001747	 0.077940
						}
					}
				}
				JOINT RightShoulder
				{
					OFFSET	-0.080363	 0.000306	 0.159706
					CHANNELS 3 Zrotation Xrotation Yrotation
					JOINT RightArm
					{
						OFFSET	 0.000000	 0.000000	 0.164196
						CHANNELS 3 Zrotation Xrotation Yrotation
						JOINT RightForeArm
						{
							OFFSET	 0.000000	 0.000000	 0.365611
							CHANNELS 3 Zrotation Xrotation Yrotation
							JOINT RightHand
							{
								OFFSET	 0.000000	 0.000000	 0.360648
								CHANNELS 3 Zrotation Xrotation Yrotation
								JOINT RightHandIndex1
								{
									OFFSET	 0.000000	 0.000000	 0.069977
									CHANNELS 3 Zrotation Xrotation Yrotation
									JOINT RightHandIndex2
									{
										OFFSET	 0.000000	 0.000000	 0.052305
										CHANNELS 3 Zrotation Xrotation Yrotation
										JOINT RightHandIndex3
										{
											OFFSET	 0.009002	-0.000782	 0.042196
											CHANNELS 3 Zrotation Xrotation Yrotation
											End Site
											{
												OFFSET	 0.009002	-0.000782	 0.042196
											}
										}
									}
								}
							}
						}
					}
				}
			}
		}
	}
}
MOTION
Frames:    4
Frame Time: 0.03333334
-9.635347	-22.457200	-0.397418	-55.621330	 2.660378	 0.357189	 2.435419	-34.514100	 172.571700	-5.086823	-66.312310	-5.290535	 176.286400	 87.590600	-178.826900	-2.342119	 35.470860	-0.160245	 0.334422	-35.971020	-177.550800	 1.433287	-70.142970	 4.331465	-177.131400	 85.991420	 178.973700	 2.406017	 20.498460	-0.163193	 0.687342	 13.017310	 1.054316	 1.728140	 5.218247	-1.929244	 2.540026	 1.902304	 0.125946	-127.155600	 89.440120	-141.261400	 47.253760	 61.149520	-76.108570	-13.125400	-2.367752	-19.091680	-2.093795	-34.162960	-6.473407	-3.812334	 37.924440	-2.927599	-2.450526	 36.184240	 0.754587	-1.378229	 35.397820	-2.634230	 1.764285	 2.279787	-3.071751	 1.388543	 6.941422	 3.360089	 94.208590	 86.008500	 171.080700	-54.025820	 70.866980	 73.085760	-6.551937	-12.193510	 20.500600	-21.466670	-34.783210	 11.617310	 6.437017	 35.671460	-0.771858	 2.830251	 35.756010	-7.813440	-2.350882	 35.473990	 5.254307
-9.628631	-22.458820	-0.375131	-57.496890	 5.442049	-0.290322	 3.298906	-35.553040	 173.401000	-4.243742	-63.061160	-3.656542	 170.833600	 88.989540	-172.884300	-2.361134	 32.917070	-0.099739	 1.520618	-37.647460	-177.093500	-0.352925	-66.948400	 3.356710	-173.625500	 87.642170	 175.296100	 2.406939	 19.512470	-0.182760	 0.578918	 13.264980	 1.203851	 1.652294	 4.985478	-1.739931	 2.600762	 1.547122	 0.137004	-119.615500	 89.322470	-148.836100	 43.832450	 60.836910	-74.432830	-13.549800	-2.346113	-17.650020	-1.974265	-35.259240	-6.554055	-3.812334	 37.924440	-2.927599	-2.450526	 36.184240	 0.754587	-1.378229	 35.397820	-2.634230	 2.119656	 1.952319	-2.883964	 1.608371	 6.575893	 4.438560	 94.459250	 86.075390	 170.696300	-53.868030	 71.808940	 72.172880	-6.562220	-11.683690	 19.224510	-21.588670	-35.845020	 11.752020	 6.437017	 35.671460	-0.771858	 2.830251	 35.756010	-7.813440	-2.350882	 35.473990	 5.254307
-9.625811	-22.460920	-0.360380	-58.639460	 7.101420	-0.669844	 4.235880	-35.768150	 174.001900	-3.939066	-60.587580	-2.584342	 109.063300	 89.830990	-110.695800	-2.368660	 31.737110	-0.072701	 1.851216	-38.266370	-176.623100	-2.145376	-64.593470	 1.825145	-168.374900	 88.702000	 169.454900	 2.407092	 19.288140	-0.187196	 0.380439	 13.790160	 1.344492	 1.440059	 5.137441	-1.611526	 2.476583	 1.438533	 0.132802	-118.103900	 89.308750	-150.447700	 41.586430	 60.972470	-74.589030	-13.656220	-2.570098	-16.198550	-0.894777	-36.108700	-6.606098	-3.812334	 37.924440	-2.927599	-2.450526	 36.184240	 0.754587	-1.378229	 35.397820	-2.634230	 2.257768	 1.897511	-2.736277	 1.715249	 6.406734	 4.605324	 94.641080	 86.141870	 170.456300	-52.971920	 72.876620	 70.526280	-6.979144	-11.133590	 17.533980	-22.316790	-36.661270	 11.831910	 6.437017	 35.671460	-0.771858	 2.830251	 35.756010	-7.813440	-2.350882	 35.473990	 5.254307
-9.625546	-22.461200	-0.348895	-58.360130	 8.410761	-0.694003	 4.464373	-36.303250	 174.154300	-3.183414	-58.695420	-1.672476	 18.144820	 89.491400	-19.330820	-2.368687	 31.733300	-0.072610	 1.118003	-38.546940	-176.577100	-2.034571	-62.544930	 1.303018	-158.955400	 89.279090	 159.833600	 2.406498	 20.026200	-0.172582	-0.250432	 13.935170	 1.267545	 0.785500	 5.296303	-1.846108	 2.060774	 1.492624	 0.109530	-126.327500	 89.490630	-142.462700	 40.843580	 61.204290	-76.205960	-14.298730	-2.647537	-15.498350	-0.442893	-36.745390	-6.649618	-3.812334	 37.924440	-2.927599	-2.450526	 36.184240	 0.754587	-1.378229	 35.397820	-2.634230	 2.033382	 2.032748	-2.850415	 1.742735	 6.380127	 4.293658	 94.476070	 85.983560	 170.498500	-50.208180	 74.622570	 66.559960	-7.165363	-10.512740	 15.644760	-23.419340	-37.287400	 11.869910	 6.437017	 35.671460	-0.771858	 2.830251	 35.756010	-7.813440	-2.350882	 35.473990	 5.254307
